<mxfile host="app.diagrams.net" modified="2023-06-30T08:08:36.294Z" agent="Mozilla/5.0 (Windows NT 10.0; Win64; x64) AppleWebKit/537.36 (KHTML, like Gecko) Chrome/114.0.0.0 Safari/537.36" etag="W0K6K_lMTTxNEjhNgzQN" version="21.5.2" type="github">
  <diagram name="ページ1" id="clkO6oaXLJQxUpyfmD5v">
    <mxGraphModel dx="344" dy="177" grid="1" gridSize="10" guides="1" tooltips="1" connect="1" arrows="1" fold="1" page="1" pageScale="1" pageWidth="827" pageHeight="1169" math="1" shadow="0">
      <root>
        <mxCell id="0" />
        <mxCell id="1" parent="0" />
        <mxCell id="svMsc3uw9s1_n_WvZ-pm-1" value="`\frac{\partial\loss}{\partial w_{211}}`" style="text;strokeColor=none;align=center;fillColor=none;html=1;verticalAlign=middle;whiteSpace=wrap;rounded=0;" vertex="1" parent="1">
          <mxGeometry x="380" y="670" width="60" height="30" as="geometry" />
        </mxCell>
        <mxCell id="svMsc3uw9s1_n_WvZ-pm-2" value="`a_{ij}`" style="text;strokeColor=none;align=center;fillColor=none;html=1;verticalAlign=middle;whiteSpace=wrap;rounded=0;" vertex="1" parent="1">
          <mxGeometry x="460" y="670" width="60" height="30" as="geometry" />
        </mxCell>
        <mxCell id="svMsc3uw9s1_n_WvZ-pm-3" value="Actor" style="shape=umlActor;verticalLabelPosition=bottom;verticalAlign=top;html=1;outlineConnect=0;" vertex="1" parent="1">
          <mxGeometry x="240" y="655" width="30" height="60" as="geometry" />
        </mxCell>
        <mxCell id="svMsc3uw9s1_n_WvZ-pm-4" value="ユースケース図" style="text;html=1;align=center;verticalAlign=middle;resizable=0;points=[];autosize=1;strokeColor=none;fillColor=none;" vertex="1" parent="1">
          <mxGeometry x="200" y="625" width="110" height="30" as="geometry" />
        </mxCell>
        <mxCell id="svMsc3uw9s1_n_WvZ-pm-5" value="" style="shape=cylinder3;whiteSpace=wrap;html=1;boundedLbl=1;backgroundOutline=1;size=9.344276303150764;rotation=-90;" vertex="1" parent="1">
          <mxGeometry x="168.75" y="645" width="17.5" height="55" as="geometry" />
        </mxCell>
      </root>
    </mxGraphModel>
  </diagram>
</mxfile>
